<?xml version="1.0" encoding="utf-8"?>
<!-- Generator: Adobe Illustrator 16.0.0, SVG Export Plug-In . SVG Version: 6.00 Build 0)  -->
<!DOCTYPE svg PUBLIC "-//W3C//DTD SVG 1.1//EN" "http://www.w3.org/Graphics/SVG/1.1/DTD/svg11.dtd">
<svg version="1.1" xmlns="http://www.w3.org/2000/svg" xmlns:xlink="http://www.w3.org/1999/xlink" x="0px" y="0px"
	 width="2356.99px" height="893.283px" viewBox="0 0 2356.99 893.283" enable-background="new 0 0 2356.99 893.283"
	 xml:space="preserve">
<g id="Layer_1">
	<path d="M387.037,316.889h-28.48l-99.104,212.367c0.839,0.393,1.648,0.835,2.443,1.3l107.246-157.77
		c1.552-2.283,4.663-2.876,6.946-1.324c2.284,1.553,2.876,4.663,1.324,6.946l-107.797,158.58c0.712,0.826,1.393,1.68,2.015,2.578
		l29.711-23.65c2.16-1.72,5.306-1.362,7.026,0.798c1.72,2.161,1.362,5.307-0.798,7.026l-30.122,23.978
		c-0.48,0.383-1.011,0.656-1.563,0.837c0.754,2.652,1.169,5.446,1.169,8.341h49.542l13.089-22.143l-25.936,11.882
		c-0.675,0.309-1.383,0.455-2.08,0.455c-1.895,0-3.708-1.083-4.549-2.919c-1.15-2.51-0.047-5.478,2.463-6.628l109.333-50.088
		c2.511-1.149,5.478-0.047,6.628,2.463c1.15,2.511,0.047,5.478-2.463,6.628l-26.712,12.237l25.588,48.111H500L387.037,316.889z
		 M360.114,481.912l-30.122,23.978c-0.92,0.732-2.019,1.088-3.11,1.088c-1.471,0-2.928-0.646-3.916-1.886
		c-1.72-2.161-1.362-5.306,0.798-7.026l30.122-23.978c2.159-1.721,5.306-1.363,7.026,0.798
		C362.632,477.046,362.274,480.192,360.114,481.912z M378.833,465.842c-2.876,0-5.208-2.332-5.208-5.208
		c0-2.876,2.332-5.208,5.208-5.208c2.876,0,5.208,2.332,5.208,5.208C384.042,463.51,381.709,465.842,378.833,465.842z"/>
	<rect x="501" y="308.645" fill="none" width="1886" height="314.395"/>
	<text transform="matrix(1 0 0 1 501 557.8086)" display="none" font-family="'Arial-BoldMT'" font-size="348">ВАНГАРД</text>
</g>
<g id="Layer_2">
</g>
</svg>
