<?xml version="1.0" encoding="iso-8859-1"?>
<!-- Generator: Adobe Illustrator 19.0.0, SVG Export Plug-In . SVG Version: 6.00 Build 0)  -->
<svg version="1.1" id="Layer_1" xmlns="http://www.w3.org/2000/svg" xmlns:xlink="http://www.w3.org/1999/xlink" x="0px" y="0px"
	 viewBox="0 0 513.173 513.173" style="enable-background:new 0 0 513.173 513.173;" xml:space="preserve">
<g transform="translate(1 1)">
	<g>
		<g>
			<path d="M511.587,372.579v-53.504c0.82-2.034,0.77-4.381-0.149-6.608c-1.349-13.082-11.911-22.747-25.451-22.747H417.72
				c-13.126,0-23.456,9.083-25.304,21.557c-1.058,2.325-1.158,4.807-0.296,6.944v53.505c-0.404,1.103-0.598,2.229-0.58,3.328
				h-33.553v-102.4H494.52v-42.667c0-25.399-17.657-45.565-42.667-50.196V84.92c0-5.12-3.413-8.533-8.533-8.533v-25.6
				c0-2.56-0.853-5.12-3.413-6.827l-34.133-25.6c-2.56-1.707-5.973-2.56-8.533-0.853c-3.413,1.707-5.12,4.267-5.12,7.68v51.2
				c-5.12,0-8.533,3.413-8.533,8.533v93.867h-25.6v-153.6c0-14.507-11.093-25.6-25.6-25.6h-153.6c-14.507,0-25.6,11.093-25.6,25.6
				v153.6H70.413c-30.72,0-53.76,22.187-53.76,51.2v42.667h136.533v102.4h-33.581c-0.067-0.824-0.252-1.655-0.552-2.474v-53.504
				c0.82-2.034,0.77-4.381-0.149-6.607c-1.349-13.082-11.911-22.747-25.451-22.747H25.187c-13.126,0-23.456,9.082-25.304,21.557
				c-1.058,2.325-1.158,4.807-0.296,6.944v53.504c-0.774,2.113-0.774,4.31,0,6.229v53.504c-0.774,2.113-0.774,4.31,0,6.229v48.299
				c0,14.507,11.093,25.6,25.6,25.6h68.267c14.507,0,25.6-11.093,25.6-25.6v-47.446c0.774-1.919,0.774-4.116,0-6.229v-6.059h34.133
				v27.307l21.333,41.813c5.12,10.24,14.507,16.213,25.6,16.213h110.933c11.093,0,21.333-5.973,25.6-16.213l21.333-41.813v-27.307
				h34.133v5.206c-0.774,2.112-0.774,4.31,0,6.229v48.299c0,14.507,11.093,25.6,25.6,25.6h68.267c14.507,0,25.6-11.093,25.6-25.6
				v-47.445c0.774-1.919,0.774-4.117,0-6.229v-53.504C512.361,376.889,512.361,374.691,511.587,372.579z M452.493,458.822
				l-43.307-28.871v-3.698v-35.271l37.547,25.031c0.704,0.352,1.407,0.7,2.111,0.992c0.53,0.238,1.075,0.419,1.628,0.541
				c0.053,0.012,0.107,0.025,0.16,0.036c0.146,0.029,0.291,0.055,0.437,0.074c0.261,0.037,0.523,0.063,0.784,0.063
				c0.288,0,0.577-0.03,0.865-0.071c0.055-0.008,0.11-0.015,0.165-0.025c1.363-0.219,2.727-0.758,4.09-0.758l37.547-25.031v38.969
				L452.493,458.822z M446.733,356.28c0.704,0.352,1.407,0.7,2.111,0.992c0.53,0.238,1.075,0.419,1.628,0.541
				c0.053,0.012,0.107,0.025,0.16,0.036c0.146,0.029,0.291,0.055,0.437,0.074c0.261,0.037,0.523,0.063,0.784,0.063
				c0.288,0,0.577-0.03,0.865-0.071c0.055-0.008,0.11-0.015,0.165-0.025c1.363-0.219,2.727-0.758,4.09-0.758l37.547-25.031v38.969
				l-42.027,28.018l-43.307-28.871v-38.969L446.733,356.28z M417.72,306.787h68.267c3.814,0,6.678,1.896,7.893,4.978l-41.386,27.591
				l-42.374-28.249C411.466,308.414,414.186,306.787,417.72,306.787z M409.187,42.253l17.067,12.8v21.333h-17.067V42.253z
				 M400.653,93.453h34.133v85.333h-34.133V93.453z M59.96,399.089l-43.307-28.871v-38.969L54.2,356.28
				c0.704,0.352,1.407,0.7,2.111,0.992c0.53,0.238,1.075,0.419,1.628,0.541c0.053,0.012,0.106,0.025,0.16,0.036
				c0.146,0.029,0.291,0.055,0.437,0.074c0.261,0.037,0.523,0.063,0.784,0.063c0.288,0,0.577-0.03,0.865-0.071
				c0.055-0.008,0.11-0.015,0.165-0.025c1.363-0.219,2.727-0.758,4.09-0.758l37.547-25.031v38.969L59.96,399.089z M25.187,306.787
				h68.267c3.814,0,6.678,1.896,7.893,4.978L59.96,339.356l-42.374-28.249C18.932,308.414,21.652,306.787,25.187,306.787z
				 M93.453,494.52H25.187c-5.12,0-8.533-3.413-8.533-8.533v-35.271L54.2,475.747c0.704,0.352,1.407,0.7,2.111,0.992
				c0.53,0.238,1.075,0.419,1.628,0.541c0.053,0.012,0.106,0.025,0.16,0.036c0.146,0.029,0.291,0.055,0.437,0.074
				c0.261,0.037,0.523,0.063,0.784,0.063c0.288,0,0.577-0.03,0.865-0.071c0.055-0.008,0.11-0.015,0.165-0.025
				c1.363-0.219,2.727-0.758,4.09-0.758l37.547-25.031v34.418C101.987,491.107,98.573,494.52,93.453,494.52z M101.987,430.804
				L59.96,458.822l-43.307-28.871v-38.969L54.2,416.013c0.704,0.352,1.407,0.7,2.111,0.992c0.53,0.238,1.075,0.419,1.628,0.541
				c0.053,0.012,0.106,0.025,0.16,0.036c0.146,0.029,0.291,0.055,0.437,0.074c0.261,0.037,0.523,0.063,0.784,0.063
				c0.288,0,0.577-0.03,0.865-0.071c0.055-0.008,0.11-0.015,0.165-0.025c1.363-0.219,2.727-0.758,4.09-0.758l37.547-25.031v34.418
				V430.804z M119.053,409.187V392.12h34.133v17.067H119.053z M340.067,450.147l-18.773,38.4c-1.707,3.413-5.973,5.973-10.24,5.973
				H199.267c-4.267,0-8.533-1.707-10.24-5.973l-18.773-38.4v-23.893v-51.2V271.8c0-8.533-6.827-16.213-16.213-16.213H33.72v-25.6
				c0-19.627,15.36-34.133,36.693-34.133h83.627c8.533,0,16.213-6.827,16.213-16.213V25.187c0-5.12,3.413-8.533,8.533-8.533h153.6
				c5.12,0,8.533,3.413,8.533,8.533V179.64c0,8.533,6.827,16.213,16.213,16.213h34.987h48.64c21.333,0,36.693,14.507,36.693,34.133
				v25.6H356.28c-8.533,0-16.213,6.827-16.213,16.213V450.147z M357.987,409.187V392.12h34.133v17.067H357.987z M485.987,494.52
				H417.72c-5.12,0-8.533-3.413-8.533-8.533v-35.271l37.547,25.031c0.704,0.352,1.407,0.7,2.111,0.992
				c0.53,0.238,1.075,0.419,1.628,0.541c0.053,0.012,0.107,0.025,0.16,0.036c0.146,0.029,0.291,0.055,0.437,0.074
				c0.261,0.037,0.523,0.063,0.784,0.063c0.288,0,0.577-0.03,0.865-0.071c0.055-0.008,0.11-0.015,0.165-0.025
				c1.363-0.219,2.727-0.758,4.09-0.758l37.547-25.031v34.418C494.52,491.107,491.107,494.52,485.987,494.52z"/>
			<path d="M204.387,178.787h102.4c5.12,0,8.533-3.413,8.533-8.533V50.787c0-5.12-3.413-8.533-8.533-8.533h-102.4
				c-5.12,0-8.533,3.413-8.533,8.533v119.467C195.853,175.373,199.267,178.787,204.387,178.787z M212.92,59.32h85.333v102.4H212.92
				V59.32z"/>
			<path d="M221.453,255.587c9.387,0,17.067-7.68,17.067-17.067v-17.067c0-9.387-7.68-17.067-17.067-17.067h-17.067
				c-9.387,0-17.067,7.68-17.067,17.067v17.067c0,9.387,7.68,17.067,17.067,17.067H221.453z M204.387,221.453h17.067v17.067h-17.067
				V221.453z"/>
			<path d="M306.787,204.387H289.72c-9.387,0-17.067,7.68-17.067,17.067v17.067c0,9.387,7.68,17.067,17.067,17.067h17.067
				c9.387,0,17.067-7.68,17.067-17.067v-17.067C323.853,212.067,316.173,204.387,306.787,204.387z M306.787,238.52H289.72v-17.067
				h17.067V238.52z"/>
			<path d="M306.787,323.853h-102.4c-5.12,0-8.533,3.413-8.533,8.533v119.467c0,1.707,0,2.56,0.853,3.413l8.533,17.067
				c1.707,3.413,4.267,5.12,7.68,5.12h85.333c3.413,0,5.973-1.707,7.68-5.12l8.533-17.067c0.853-0.853,0.853-1.707,0.853-3.413
				V332.387C315.32,327.267,311.907,323.853,306.787,323.853z M264.12,340.92v119.467h-17.067V340.92H264.12z M212.92,450.147
				V340.92h17.067v119.467H218.04L212.92,450.147z M298.253,450.147l-5.12,10.24h-11.947V340.92h17.067V450.147z"/>
		</g>
	</g>
</g>
<g>
</g>
<g>
</g>
<g>
</g>
<g>
</g>
<g>
</g>
<g>
</g>
<g>
</g>
<g>
</g>
<g>
</g>
<g>
</g>
<g>
</g>
<g>
</g>
<g>
</g>
<g>
</g>
<g>
</g>
</svg>
